<svg version="1.2" xmlns="http://www.w3.org/2000/svg" viewBox="0 0 1005 600" width="720" height="430">
	<title>2-svg</title>
	<style>
		.s0 { fill: #ffffff } 
		.s1 { fill: #2e3872 } 
		.s2 { fill: #9bcae9 } 
		.s3 { fill: #22d2ff } 
		.s4 { fill: none;stroke: #000000 } 
		.s5 { fill: #000000 } 
		.s6 { fill: #7b7b7b } 
		.s7 { fill: none;stroke: #cccccc } 
	</style>
	<path id="backgorund" class="s0" d="m-1 0h1005v600h-1005z"/>
	<g id="viz">
		<g id="Layer">
			<g id="Layer">
				<g id="Layer">
					<path id="undefined - Muertos" class="s1" d="m55 20h19.8v560h-19.8z"/>
					<path id="undefined - Desaparecidos" class="s2" d="m75.8 20h19.8v560h-19.8z"/>
					<path id="undefined - Sobrevivientes" class="s3" d="m96.6 20h19.8v560h-19.8z"/>
					<path id="undefined - Muertos" class="s1" d="m122.3 505.3h19.8v74.7h-19.8z"/>
					<path id="undefined - Desaparecidos" class="s2" d="m143.1 492.9h19.8v87.1h-19.8z"/>
					<path id="undefined - Sobrevivientes" class="s3" d="m163.9 181.8h19.8v398.2h-19.8z"/>
					<path id="undefined - Muertos" class="s1" d="m189.7 455.6h19.8v124.4h-19.8z"/>
					<path id="undefined - Desaparecidos" class="s2" d="m210.5 492.9h19.8v87.1h-19.8z"/>
					<path id="undefined - Sobrevivientes" class="s3" d="m231.3 231.6h19.8v348.4h-19.8z"/>
					<path id="undefined - Muertos" class="s1" d="m257.1 443.1h19.8v136.9h-19.8z"/>
					<path id="undefined - Desaparecidos" class="s2" d="m277.9 492.9h19.8v87.1h-19.8z"/>
					<path id="undefined - Sobrevivientes" class="s3" d="m298.7 244h19.8v336h-19.8z"/>
					<path id="undefined - Muertos" class="s1" d="m324.4 380.9h19.8v199.1h-19.8z"/>
					<path id="undefined - Desaparecidos" class="s2" d="m345.2 555.1h19.8v24.9h-19.8z"/>
					<path id="undefined - Sobrevivientes" class="s3" d="m366 244h19.8v336h-19.8z"/>
					<path id="undefined - Muertos" class="s1" d="m391.8 281.3h19.8v298.7h-19.8z"/>
					<path id="undefined - Desaparecidos" class="s2" d="m412.6 555.1h19.8v24.9h-19.8z"/>
					<path id="undefined - Sobrevivientes" class="s3" d="m433.4 343.6h19.8v236.4h-19.8z"/>
					<path id="undefined - Muertos" class="s1" d="m459.2 268.9h19.8v311.1h-19.8z"/>
					<path id="undefined - Desaparecidos" class="s2" d="m480 555.1h19.8v24.9h-19.8z"/>
					<path id="undefined - Sobrevivientes" class="s3" d="m500.8 356h19.8v224h-19.8z"/>
					<path id="undefined - Muertos" class="s1" d="m526.5 256.4h19.8v323.6h-19.8z"/>
					<path id="undefined - Desaparecidos" class="s2" d="m547.3 555.1h19.8v24.9h-19.8z"/>
					<path id="undefined - Sobrevivientes" class="s3" d="m568.1 368.4h19.8v211.6h-19.8z"/>
					<path id="undefined - Muertos" class="s1" d="m593.9 244h19.8v336h-19.8z"/>
					<path id="undefined - Desaparecidos" class="s2" d="m614.7 555.1h19.8v24.9h-19.8z"/>
					<path id="undefined - Sobrevivientes" class="s3" d="m635.5 380.9h19.8v199.1h-19.8z"/>
					<path id="undefined - Muertos" class="s1" d="m661.3 231.6h19.8v348.4h-19.8z"/>
					<path id="undefined - Desaparecidos" class="s2" d="m682.1 567.6h19.8v12.4h-19.8z"/>
					<path id="undefined - Sobrevivientes" class="s3" d="m702.9 380.9h19.8v199.1h-19.8z"/>
					<path id="undefined - Muertos" class="s1" d="m728.6 219.1h19.8v360.9h-19.8z"/>
					<path id="undefined - Desaparecidos" class="s2" d="m749.4 20h19.8v560h-19.8z"/>
					<path id="undefined - Sobrevivientes" class="s3" d="m770.2 380.9h19.8v199.1h-19.8z"/>
				</g>
				<g id="xAxis">
					<path id="Layer" class="s4" d="m50 580h745"/>
					<g id="Layer">
						<path id="Layer" class="s4" d="m85.7 580v6"/>
						<path id="0" fill-rule="evenodd" class="s5" d="m85.7 588.6q1.2 0 1.8 0.9 0.7 1 0.7 2.9 0 1.8-0.7 2.8-0.6 0.9-1.8 0.9-1.3 0-1.9-0.9-0.6-1-0.6-2.8 0-1.9 0.6-2.9 0.6-0.9 1.9-0.9zm0 0.8q-0.8 0-1.2 0.7-0.4 0.8-0.4 2.3 0 1.5 0.4 2.2 0.4 0.8 1.2 0.8 0.7 0 1.1-0.8 0.4-0.7 0.4-2.2 0-1.5-0.4-2.3-0.4-0.7-1.1-0.7z"/>
					</g>
					<g id="Layer">
						<path id="Layer" class="s4" d="m153 580v6"/>
						<path id="1" class="s5" d="m151.1 596v-0.8h1.6v-5.6l-1.7 0.4v-0.9l1.7-0.4h1v6.5h1.6v0.8z"/>
					</g>
					<g id="Layer">
						<path id="Layer" class="s4" d="m220.4 580v6"/>
						<path id="2" class="s5" d="m219.1 595.2h3.5v0.8h-4.6v-0.8q0.5-0.6 1.5-1.6 1-1 1.2-1.3 0.5-0.5 0.7-0.9 0.2-0.3 0.2-0.7 0-0.6-0.5-0.9-0.4-0.4-1-0.4-0.5 0-1 0.2-0.5 0.1-1.1 0.5v-1q0.6-0.3 1.1-0.4 0.5-0.1 1-0.1 1.1 0 1.8 0.5 0.6 0.6 0.6 1.6 0 0.4-0.1 0.8-0.2 0.4-0.6 1-0.2 0.1-0.8 0.8-0.7 0.7-1.9 1.9z"/>
					</g>
					<g id="Layer">
						<path id="Layer" class="s4" d="m287.8 580v6"/>
						<path id="9" fill-rule="evenodd" class="s5" d="m285.7 595.8v-0.8q0.4 0.1 0.7 0.2 0.4 0.1 0.8 0.1 1 0 1.5-0.6 0.5-0.7 0.6-2-0.3 0.4-0.8 0.6-0.4 0.2-0.9 0.2-1.1 0-1.7-0.6-0.7-0.7-0.7-1.8 0-1.2 0.7-1.8 0.6-0.7 1.7-0.7 1.3 0 2 0.9 0.6 1 0.6 2.9 0 1.7-0.8 2.7-0.8 1-2.2 1-0.3 0-0.7 0-0.4-0.1-0.8-0.3zm1.9-3q0.7 0 1.1-0.5 0.4-0.5 0.4-1.2 0-0.8-0.4-1.3-0.4-0.4-1.1-0.4-0.6 0-1 0.4-0.4 0.5-0.4 1.3 0 0.7 0.4 1.2 0.4 0.5 1 0.5z"/>
					</g>
					<g id="Layer">
						<path id="Layer" class="s4" d="m355.1 580v6"/>
						<path id="12" class="s5" d="m350 596v-0.8h1.6v-5.6l-1.7 0.4v-0.9l1.7-0.4h1v6.5h1.6v0.8zm7.1-0.8h3.4v0.8h-4.6v-0.8q0.5-0.6 1.5-1.6 1-1 1.2-1.3 0.5-0.5 0.7-0.9 0.2-0.3 0.2-0.7 0-0.6-0.4-0.9-0.5-0.4-1.1-0.4-0.5 0-1 0.2-0.5 0.1-1.1 0.5v-1q0.6-0.3 1.1-0.4 0.5-0.1 1-0.1 1.1 0 1.8 0.5 0.7 0.6 0.7 1.6 0 0.4-0.2 0.8-0.2 0.4-0.6 1-0.1 0.1-0.8 0.8-0.7 0.7-1.8 1.9z"/>
					</g>
					<g id="Layer">
						<path id="Layer" class="s4" d="m422.5 580v6"/>
						<path id="17" class="s5" d="m417.4 596v-0.8h1.6v-5.6l-1.8 0.4v-0.9l1.8-0.4h1v6.5h1.6v0.8zm5.9-6.5v-0.8h4.7v0.4l-2.6 6.9h-1.1l2.5-6.5z"/>
					</g>
					<g id="Layer">
						<path id="Layer" class="s4" d="m489.9 580v6"/>
						<path id="34" fill-rule="evenodd" class="s5" d="m487.6 592.1q0.7 0.1 1.1 0.6 0.4 0.5 0.4 1.2 0 1.1-0.8 1.7-0.7 0.5-2.1 0.5-0.4 0-0.9 0-0.5-0.1-1-0.3v-1q0.4 0.3 0.9 0.4 0.5 0.1 1 0.1 0.9 0 1.4-0.4 0.5-0.3 0.5-1 0-0.7-0.5-1-0.4-0.4-1.2-0.4h-0.9v-0.8h0.9q0.7 0 1.1-0.3 0.4-0.3 0.4-0.8 0-0.6-0.4-0.9-0.4-0.3-1.1-0.3-0.4 0-0.9 0.1-0.5 0.1-1 0.3v-0.9q0.5-0.2 1-0.2 0.5-0.1 1-0.1 1.1 0 1.7 0.5 0.7 0.5 0.7 1.4 0 0.6-0.4 1-0.3 0.4-0.9 0.6zm2.7 1.2l3-4.6h1.2v4.8h1.1v0.8h-1.1v1.7h-0.9v-1.7h-3.3zm3.3 0.2v-3.9l-2.4 3.9z"/>
					</g>
					<g id="Layer">
						<path id="Layer" class="s4" d="m557.2 580v6"/>
						<path id="37" class="s5" d="m554.9 592.1q0.7 0.1 1.1 0.6 0.4 0.5 0.4 1.2 0 1.1-0.7 1.7-0.8 0.5-2.1 0.5-0.5 0-1 0-0.5-0.1-1-0.3v-1q0.4 0.3 0.9 0.4 0.5 0.1 1 0.1 1 0 1.5-0.4 0.4-0.3 0.4-1 0-0.7-0.4-1-0.5-0.4-1.3-0.4h-0.8v-0.8h0.9q0.7 0 1.1-0.3 0.4-0.3 0.4-0.8 0-0.6-0.4-0.9-0.4-0.3-1.2-0.3-0.4 0-0.8 0.1-0.5 0.1-1 0.3v-0.9q0.5-0.2 1-0.2 0.5-0.1 0.9-0.1 1.2 0 1.8 0.5 0.7 0.5 0.7 1.4 0 0.6-0.4 1-0.3 0.4-1 0.6zm3.2-2.6v-0.8h4.6v0.4l-2.6 6.9h-1l2.5-6.5z"/>
					</g>
					<g id="Layer">
						<path id="Layer" class="s4" d="m624.6 580v6"/>
						<path id="60" fill-rule="evenodd" class="s5" d="m623.5 588.9v0.9q-0.4-0.2-0.8-0.3-0.3-0.1-0.7-0.1-1 0-1.5 0.7-0.5 0.6-0.6 2 0.3-0.5 0.7-0.7 0.5-0.2 1-0.2 1.1 0 1.7 0.6 0.7 0.7 0.7 1.9 0 1.1-0.7 1.8-0.7 0.6-1.8 0.6-1.2 0-1.9-0.9-0.7-1-0.7-2.8 0-1.8 0.9-2.8 0.8-1 2.2-1 0.3 0 0.7 0.1 0.4 0 0.8 0.2zm-2 3.1q-0.6 0-1 0.4-0.4 0.5-0.4 1.3 0 0.7 0.4 1.2 0.4 0.5 1 0.5 0.7 0 1.1-0.5 0.4-0.5 0.4-1.2 0-0.8-0.4-1.3-0.4-0.4-1.1-0.4zm6.3-3.4q1.2 0 1.8 0.9 0.7 1 0.7 2.9 0 1.8-0.7 2.8-0.6 0.9-1.8 0.9-1.3 0-1.9-0.9-0.6-1-0.6-2.8 0-1.9 0.6-2.9 0.6-0.9 1.9-0.9zm0 0.8q-0.8 0-1.2 0.7-0.4 0.8-0.4 2.3 0 1.5 0.4 2.2 0.4 0.8 1.2 0.8 0.7 0 1.1-0.8 0.4-0.7 0.4-2.2 0-1.5-0.4-2.3-0.4-0.7-1.1-0.7z"/>
					</g>
					<g id="Layer">
						<path id="Layer" class="s4" d="m692 580v6"/>
						<path id="62" fill-rule="evenodd" class="s5" d="m690.9 588.9v0.9q-0.4-0.2-0.8-0.3-0.4-0.1-0.7-0.1-1 0-1.5 0.7-0.5 0.6-0.6 2 0.3-0.5 0.7-0.7 0.4-0.2 1-0.2 1.1 0 1.7 0.6 0.6 0.7 0.6 1.9 0 1.1-0.6 1.8-0.7 0.6-1.8 0.6-1.3 0-1.9-0.9-0.7-1-0.7-2.8 0-1.8 0.8-2.8 0.8-1 2.2-1 0.4 0 0.8 0.1 0.3 0 0.8 0.2zm-2 3.1q-0.7 0-1.1 0.4-0.3 0.5-0.3 1.3 0 0.7 0.3 1.2 0.4 0.5 1.1 0.5 0.7 0 1.1-0.5 0.3-0.5 0.3-1.2 0-0.8-0.3-1.3-0.4-0.4-1.1-0.4zm5 3.2h3.4v0.8h-4.6v-0.8q0.6-0.6 1.5-1.6 1-1 1.2-1.3 0.5-0.5 0.7-0.9 0.2-0.3 0.2-0.7 0-0.6-0.4-0.9-0.4-0.4-1.1-0.4-0.4 0-1 0.2-0.5 0.1-1.1 0.5v-1q0.6-0.3 1.2-0.4 0.5-0.1 0.9-0.1 1.1 0 1.8 0.5 0.7 0.6 0.7 1.6 0 0.4-0.2 0.8-0.2 0.4-0.6 1-0.1 0.1-0.8 0.8-0.6 0.7-1.8 1.9z"/>
					</g>
					<g id="Layer">
						<path id="Layer" class="s4" d="m759.3 580v6"/>
						<path id="72" class="s5" d="m753.8 589.5v-0.8h4.7v0.4l-2.7 6.9h-1l2.5-6.5zm7.4 5.7h3.5v0.8h-4.6v-0.8q0.5-0.6 1.5-1.6 1-1 1.2-1.3 0.5-0.5 0.7-0.9 0.2-0.3 0.2-0.7 0-0.6-0.5-0.9-0.4-0.4-1-0.4-0.5 0-1 0.2-0.5 0.1-1.1 0.5v-1q0.6-0.3 1.1-0.4 0.5-0.1 1-0.1 1.1 0 1.8 0.5 0.7 0.6 0.7 1.6 0 0.4-0.2 0.8-0.2 0.4-0.6 1-0.2 0.1-0.8 0.8-0.7 0.7-1.9 1.9z"/>
					</g>
				</g>
				<g id="yAxis">
					<path id="Layer" class="s4" d="m50 580v-560"/>
					<g id="Layer">
						<path id="Layer" class="s4" d="m50 580h-6"/>
						<path id="0" fill-rule="evenodd" class="s5" d="m37.8 575.6q1.2 0 1.9 0.9 0.6 1 0.6 2.9 0 1.8-0.6 2.8-0.7 0.9-1.9 0.9-1.2 0-1.9-0.9-0.6-1-0.6-2.8 0-1.9 0.6-2.9 0.7-0.9 1.9-0.9zm0 0.8q-0.7 0-1.1 0.7-0.4 0.8-0.4 2.3 0 1.5 0.4 2.2 0.4 0.8 1.1 0.8 0.8 0 1.2-0.8 0.3-0.7 0.3-2.2 0-1.5-0.3-2.3-0.4-0.7-1.2-0.7z"/>
					</g>
					<g id="Layer">
						<path id="Layer" class="s4" d="m50 517.8h-6"/>
						<path id="5" class="s5" d="m35.7 517.4v-3.7h3.9v0.8h-3v1.8q0.2 0 0.4-0.1 0.3 0 0.5 0 1.2 0 1.9 0.6 0.7 0.7 0.7 1.9 0 1.1-0.7 1.8-0.7 0.6-2.1 0.6-0.4 0-0.9 0-0.5-0.1-1-0.3v-1q0.4 0.3 0.9 0.4 0.5 0.1 1 0.1 0.9 0 1.3-0.4 0.5-0.5 0.5-1.2 0-0.8-0.5-1.2-0.4-0.5-1.3-0.5-0.4 0-0.8 0.1-0.4 0.1-0.8 0.3z"/>
					</g>
					<g id="Layer">
						<path id="Layer" class="s4" d="m50 455.6h-6"/>
						<path id="10" fill-rule="evenodd" class="s5" d="m29.5 459v-0.8h1.6v-5.6l-1.7 0.4v-0.9l1.7-0.4h1v6.5h1.6v0.8zm8.3-7.4q1.2 0 1.9 0.9 0.6 1 0.6 2.9 0 1.8-0.6 2.8-0.7 0.9-1.9 0.9-1.2 0-1.9-0.9-0.6-1-0.6-2.8 0-1.9 0.6-2.9 0.7-0.9 1.9-0.9zm0 0.8q-0.7 0-1.1 0.7-0.4 0.8-0.4 2.3 0 1.5 0.4 2.2 0.4 0.8 1.1 0.8 0.8 0 1.2-0.8 0.3-0.7 0.3-2.2 0-1.5-0.3-2.3-0.4-0.7-1.2-0.7z"/>
					</g>
					<g id="Layer">
						<path id="Layer" class="s4" d="m50 393.3h-6"/>
						<path id="15" class="s5" d="m29.5 397v-0.8h1.6v-5.6l-1.7 0.4v-0.9l1.7-0.4h1v6.5h1.6v0.8zm6.2-3.6v-3.7h3.9v0.8h-3v1.8q0.2 0 0.4-0.1 0.3 0 0.5 0 1.2 0 1.9 0.6 0.7 0.7 0.7 1.9 0 1.1-0.7 1.8-0.7 0.6-2.1 0.6-0.4 0-0.9 0-0.5-0.1-1-0.3v-1q0.4 0.3 0.9 0.4 0.5 0.1 1 0.1 0.9 0 1.3-0.4 0.5-0.5 0.5-1.2 0-0.8-0.5-1.2-0.4-0.5-1.3-0.5-0.4 0-0.8 0.1-0.4 0.1-0.8 0.3z"/>
					</g>
					<g id="Layer">
						<path id="Layer" class="s4" d="m50 331.1h-6"/>
						<path id="20" fill-rule="evenodd" class="s5" d="m30.2 333.2h3.4v0.8h-4.6v-0.8q0.6-0.6 1.5-1.6 1-1 1.3-1.3 0.4-0.5 0.6-0.9 0.2-0.3 0.2-0.7 0-0.6-0.4-0.9-0.4-0.4-1.1-0.4-0.4 0-0.9 0.2-0.6 0.1-1.1 0.5v-1q0.6-0.3 1.1-0.4 0.5-0.1 0.9-0.1 1.2 0 1.8 0.5 0.7 0.6 0.7 1.6 0 0.4-0.2 0.8-0.1 0.4-0.6 1-0.1 0.1-0.8 0.8-0.6 0.7-1.8 1.9zm7.6-6.6q1.2 0 1.9 0.9 0.6 1 0.6 2.9 0 1.8-0.6 2.8-0.7 0.9-1.9 0.9-1.2 0-1.9-0.9-0.6-1-0.6-2.8 0-1.9 0.6-2.9 0.7-0.9 1.9-0.9zm0 0.8q-0.7 0-1.1 0.7-0.4 0.8-0.4 2.3 0 1.5 0.4 2.2 0.4 0.8 1.1 0.8 0.8 0 1.2-0.8 0.3-0.7 0.3-2.2 0-1.5-0.3-2.3-0.4-0.7-1.2-0.7z"/>
					</g>
					<g id="Layer">
						<path id="Layer" class="s4" d="m50 268.9h-6"/>
						<path id="25" class="s5" d="m30.2 271.2h3.4v0.8h-4.6v-0.8q0.6-0.6 1.5-1.6 1-1 1.3-1.3 0.4-0.5 0.6-0.9 0.2-0.3 0.2-0.7 0-0.6-0.4-0.9-0.4-0.4-1.1-0.4-0.4 0-0.9 0.2-0.6 0.1-1.1 0.5v-1q0.6-0.3 1.1-0.4 0.5-0.1 0.9-0.1 1.2 0 1.8 0.5 0.7 0.6 0.7 1.6 0 0.4-0.2 0.8-0.1 0.4-0.6 1-0.1 0.1-0.8 0.8-0.6 0.7-1.8 1.9zm5.5-2.8v-3.7h3.9v0.8h-3v1.8q0.2 0 0.4-0.1 0.3 0 0.5 0 1.2 0 1.9 0.6 0.7 0.7 0.7 1.9 0 1.1-0.7 1.8-0.7 0.6-2.1 0.6-0.4 0-0.9 0-0.5-0.1-1-0.3v-1q0.4 0.3 0.9 0.4 0.5 0.1 1 0.1 0.9 0 1.3-0.4 0.5-0.5 0.5-1.2 0-0.8-0.5-1.2-0.4-0.5-1.3-0.5-0.4 0-0.8 0.1-0.4 0.1-0.8 0.3z"/>
					</g>
					<g id="Layer">
						<path id="Layer" class="s4" d="m50 206.7h-6"/>
						<path id="30" fill-rule="evenodd" class="s5" d="m32.3 206.1q0.7 0.1 1.1 0.6 0.4 0.5 0.4 1.2 0 1.1-0.7 1.7-0.7 0.5-2.1 0.5-0.5 0-1 0-0.4-0.1-1-0.3v-1q0.4 0.3 0.9 0.4 0.5 0.1 1.1 0.1 0.9 0 1.4-0.4 0.5-0.3 0.5-1 0-0.7-0.5-1-0.4-0.4-1.3-0.4h-0.8v-0.8h0.9q0.7 0 1.1-0.3 0.4-0.3 0.4-0.8 0-0.6-0.4-0.9-0.4-0.3-1.2-0.3-0.4 0-0.8 0.1-0.5 0.1-1 0.3v-0.9q0.5-0.2 1-0.2 0.5-0.1 0.9-0.1 1.2 0 1.8 0.5 0.7 0.5 0.7 1.4 0 0.6-0.4 1-0.3 0.4-1 0.6zm5.5-3.5q1.2 0 1.9 0.9 0.6 1 0.6 2.9 0 1.8-0.6 2.8-0.7 0.9-1.9 0.9-1.2 0-1.9-0.9-0.6-1-0.6-2.8 0-1.9 0.6-2.9 0.7-0.9 1.9-0.9zm0 0.8q-0.7 0-1.1 0.7-0.4 0.8-0.4 2.3 0 1.5 0.4 2.2 0.4 0.8 1.1 0.8 0.8 0 1.2-0.8 0.3-0.7 0.3-2.2 0-1.5-0.3-2.3-0.4-0.7-1.2-0.7z"/>
					</g>
					<g id="Layer">
						<path id="Layer" class="s4" d="m50 144.4h-6"/>
						<path id="35" class="s5" d="m32.3 144.1q0.7 0.1 1.1 0.6 0.4 0.5 0.4 1.2 0 1.1-0.7 1.7-0.7 0.5-2.1 0.5-0.5 0-1 0-0.4-0.1-1-0.3v-1q0.4 0.3 0.9 0.4 0.5 0.1 1.1 0.1 0.9 0 1.4-0.4 0.5-0.3 0.5-1 0-0.7-0.5-1-0.4-0.4-1.3-0.4h-0.8v-0.8h0.9q0.7 0 1.1-0.3 0.4-0.3 0.4-0.8 0-0.6-0.4-0.9-0.4-0.3-1.2-0.3-0.4 0-0.8 0.1-0.5 0.1-1 0.3v-0.9q0.5-0.2 1-0.2 0.5-0.1 0.9-0.1 1.2 0 1.8 0.5 0.7 0.5 0.7 1.4 0 0.6-0.4 1-0.3 0.4-1 0.6zm3.4 0.3v-3.7h3.9v0.8h-3v1.8q0.2 0 0.4-0.1 0.3 0 0.5 0 1.2 0 1.9 0.6 0.7 0.7 0.7 1.9 0 1.1-0.7 1.8-0.7 0.6-2.1 0.6-0.4 0-0.9 0-0.5-0.1-1-0.3v-1q0.4 0.3 0.9 0.4 0.5 0.1 1 0.1 0.9 0 1.3-0.4 0.5-0.5 0.5-1.2 0-0.8-0.5-1.2-0.4-0.5-1.3-0.5-0.4 0-0.8 0.1-0.4 0.1-0.8 0.3z"/>
					</g>
					<g id="Layer">
						<path id="Layer" class="s4" d="m50 82.2h-6"/>
						<path id="40" fill-rule="evenodd" class="s5" d="m28.8 82.3l3-4.6h1.2v4.8h1.1v0.8h-1.1v1.7h-0.9v-1.7h-3.3zm3.3 0.2v-3.9l-2.5 3.9zm5.7-5q1.3 0 1.9 1 0.6 1 0.6 2.8 0 1.9-0.6 2.8-0.6 1-1.9 1-1.2 0-1.8-1-0.7-0.9-0.7-2.8 0-1.8 0.7-2.8 0.6-1 1.8-1zm0 0.8q-0.7 0-1.1 0.8-0.4 0.7-0.4 2.2 0 1.5 0.4 2.3 0.4 0.7 1.1 0.7 0.8 0 1.2-0.7 0.4-0.8 0.4-2.3 0-1.5-0.4-2.2-0.4-0.8-1.2-0.8z"/>
					</g>
					<g id="Layer">
						<path id="Layer" class="s4" d="m50 20h-6"/>
						<path id="45" fill-rule="evenodd" class="s5" d="m28.8 20.3l3-4.6h1.2v4.8h1.1v0.8h-1.1v1.7h-0.9v-1.7h-3.3zm3.3 0.2v-3.9l-2.5 3.9zm3.6-1.2v-3.6h3.9v0.8h-3v1.8q0.2-0.1 0.5-0.1 0.2-0.1 0.4-0.1 1.2 0 1.9 0.7 0.7 0.7 0.7 1.8 0 1.2-0.7 1.8-0.7 0.7-2.1 0.7-0.4 0-0.9-0.1-0.5-0.1-1-0.2v-1q0.5 0.2 0.9 0.3 0.5 0.2 1 0.2 0.9 0 1.4-0.5 0.4-0.4 0.4-1.2 0-0.7-0.4-1.2-0.5-0.4-1.4-0.4-0.4 0-0.8 0.1-0.4 0-0.8 0.2z"/>
					</g>
				</g>
				<path id="Sets" fill-rule="evenodd" class="s6" d="m775.5 567.5v1.2q-0.7-0.3-1.3-0.5-0.6-0.1-1.2-0.1-0.9 0-1.5 0.3-0.5 0.4-0.5 1.1 0 0.6 0.4 0.9 0.3 0.3 1.3 0.4l0.7 0.2q1.3 0.2 2 0.9 0.6 0.6 0.6 1.7 0 1.3-0.9 1.9-0.8 0.7-2.5 0.7-0.6 0-1.3-0.2-0.7-0.1-1.4-0.4v-1.2q0.7 0.4 1.4 0.6 0.7 0.2 1.3 0.2 1.1 0 1.6-0.4 0.6-0.4 0.6-1.1 0-0.7-0.4-1-0.4-0.4-1.3-0.6l-0.8-0.1q-1.3-0.3-1.9-0.8-0.6-0.6-0.6-1.6 0-1.2 0.8-1.8 0.9-0.7 2.3-0.7 0.6 0 1.3 0.1 0.6 0.1 1.3 0.3zm7.9 4.9v0.6h-5q0.1 1.1 0.7 1.7 0.6 0.6 1.7 0.6 0.6 0 1.2-0.2 0.6-0.1 1.2-0.5v1.1q-0.6 0.2-1.2 0.3-0.6 0.2-1.3 0.2-1.5 0-2.5-0.9-0.9-1-0.9-2.5 0-1.6 0.9-2.6 0.9-0.9 2.3-0.9 1.4 0 2.1 0.8 0.8 0.9 0.8 2.3zm-4.9-0.3h3.8q0-0.9-0.5-1.4-0.5-0.5-1.2-0.5-1 0-1.5 0.5-0.5 0.5-0.6 1.4zm6.7-4.5h1v1.8h2.3v0.9h-2.3v3.5q0 0.8 0.3 1.1 0.2 0.2 0.9 0.2h1.1v0.9h-1.1q-1.3 0-1.8-0.5-0.4-0.4-0.4-1.7v-3.5h-0.8v-0.9h0.8zm8.9 2.1v1q-0.5-0.2-1-0.3-0.5-0.2-1-0.2-0.8 0-1.2 0.3-0.4 0.2-0.4 0.7 0 0.4 0.3 0.6 0.3 0.2 1.1 0.4l0.4 0.1q1.1 0.3 1.6 0.7 0.5 0.5 0.5 1.3 0 0.9-0.7 1.4-0.7 0.5-2 0.5-0.5 0-1.1-0.1-0.6-0.1-1.2-0.3v-1.1q0.6 0.3 1.2 0.5 0.6 0.1 1.1 0.1 0.8 0 1.2-0.2 0.4-0.3 0.4-0.8 0-0.4-0.3-0.6-0.3-0.3-1.3-0.5l-0.4-0.1q-1-0.2-1.4-0.6-0.5-0.5-0.5-1.2 0-0.9 0.7-1.5 0.7-0.5 1.9-0.5 0.6 0 1.1 0.1 0.5 0.1 1 0.3z"/>
				<path id="Value" fill-rule="evenodd" class="s6" d="m58.8 32h-1.4l-3.3-8.7h1.2l2.8 7.3 2.8-7.3h1.2zm8.8-3.8v3.8h-1.1v-1q-0.4 0.6-0.9 0.9-0.6 0.3-1.4 0.3-1 0-1.6-0.6-0.6-0.6-0.6-1.5 0-1.1 0.8-1.7 0.7-0.6 2.2-0.6h1.5v-0.1q0-0.7-0.5-1.1-0.5-0.4-1.4-0.4-0.5 0-1.1 0.1-0.5 0.2-1 0.4v-1q0.6-0.2 1.2-0.3 0.5-0.1 1-0.1 1.5 0 2.2 0.7 0.7 0.7 0.7 2.2zm-1.1 0.5h-1.1q-1.3 0-1.8 0.3-0.5 0.3-0.5 1 0 0.5 0.4 0.9 0.4 0.3 1 0.3 0.9 0 1.5-0.6 0.5-0.7 0.5-1.7zm3.3 3.3v-9.1h1.1v9.1zm3.2-2.6v-4h1.1v4q0 0.9 0.3 1.4 0.4 0.4 1.1 0.4 0.9 0 1.4-0.5 0.5-0.6 0.5-1.5v-3.8h1.1v6.6h-1.1v-1q-0.4 0.6-0.9 0.9-0.5 0.3-1.2 0.3-1.1 0-1.7-0.7-0.6-0.7-0.6-2.1zm13.3-1v0.6h-4.9q0 1.1 0.6 1.7 0.6 0.5 1.7 0.5 0.6 0 1.2-0.1 0.6-0.2 1.2-0.5v1.1q-0.6 0.2-1.2 0.3-0.6 0.2-1.3 0.2-1.5 0-2.4-1-1-0.9-1-2.4 0-1.6 0.9-2.6 0.9-0.9 2.4-0.9 1.3 0 2.1 0.8 0.7 0.9 0.7 2.3zm-4.9-0.3h3.8q0-0.9-0.4-1.4-0.5-0.5-1.3-0.5-0.9 0-1.5 0.5-0.5 0.5-0.6 1.4z"/>
			</g>
		</g>
		<g id="grid">
			<path id="Layer" class="s7" d="m0 0h805v600h-805z"/>
		</g>
	</g>
	<g id="legend">
		<g id="Layer">
			<g id="Layer">
				<g id="Layer">
					<g id="Layer">
						<path id="Layer" class="s2" d="m810 35.5h15v15h-15z"/>
						<path id="Desaparecidos" fill-rule="evenodd" class="s5" d="m831 48v-7.3h2q2.1 0 3.1 0.9 1 0.9 1 2.7 0 1.9-1 2.8-1 0.9-3.1 0.9zm2.2-6.5h-1.2v5.7h1.2q1.5 0 2.2-0.7 0.7-0.7 0.7-2.2 0-1.4-0.7-2.1-0.7-0.7-2.2-0.7zm10.1 3.5v0.5h-4.1q0.1 0.9 0.6 1.4 0.5 0.5 1.4 0.5 0.5 0 1-0.1 0.5-0.2 0.9-0.4v0.8q-0.4 0.2-1 0.3-0.5 0.1-1 0.1-1.3 0-2.1-0.7-0.7-0.8-0.7-2.1 0-1.3 0.7-2.1 0.7-0.8 2-0.8 1.1 0 1.7 0.7 0.6 0.7 0.6 1.9zm-4.1-0.2h3.2q0-0.8-0.4-1.2-0.4-0.4-1-0.4-0.8 0-1.2 0.4-0.5 0.4-0.6 1.2zm9.1-2.1v0.8q-0.4-0.2-0.8-0.3-0.4 0-0.8 0-0.7 0-1 0.2-0.4 0.2-0.4 0.6 0 0.3 0.3 0.5 0.2 0.1 0.9 0.3l0.3 0.1q1 0.2 1.4 0.6 0.4 0.3 0.4 1 0 0.8-0.6 1.2-0.6 0.4-1.7 0.4-0.4 0-0.9 0-0.5-0.1-1-0.3v-0.9q0.5 0.2 1 0.4 0.5 0.1 1 0.1 0.6 0 0.9-0.2 0.4-0.2 0.4-0.6 0-0.4-0.3-0.6-0.2-0.2-1.1-0.4l-0.3-0.1q-0.8-0.1-1.2-0.5-0.3-0.4-0.3-1 0-0.8 0.5-1.2 0.6-0.4 1.6-0.4 0.5 0 0.9 0.1 0.4 0 0.8 0.2zm6 2.2v3.1h-0.9v-0.8q-0.3 0.5-0.8 0.7-0.4 0.2-1.1 0.2-0.8 0-1.3-0.4-0.5-0.5-0.5-1.3 0-0.9 0.6-1.4 0.6-0.5 1.9-0.5h1.2q0-0.7-0.4-1-0.4-0.3-1.1-0.3-0.5 0-1 0.1-0.4 0.1-0.8 0.3v-0.8q0.5-0.2 0.9-0.3 0.5-0.1 1-0.1 1.1 0 1.7 0.6 0.6 0.6 0.6 1.9zm-0.9 0.4h-0.9q-1.1 0-1.5 0.2-0.4 0.2-0.4 0.8 0 0.5 0.3 0.8 0.3 0.3 0.9 0.3 0.7 0 1.2-0.5 0.4-0.6 0.4-1.4zm3.6 1.9v2.9h-0.9v-7.6h0.9v0.9q0.3-0.5 0.7-0.8 0.5-0.2 1.1-0.2 1 0 1.6 0.8 0.6 0.8 0.6 2.1 0 1.3-0.6 2.1-0.6 0.7-1.6 0.7-0.6 0-1.1-0.2-0.4-0.2-0.7-0.7zm3.1-1.9q0-1-0.4-1.6-0.4-0.5-1.1-0.5-0.8 0-1.2 0.5-0.4 0.6-0.4 1.6 0 1 0.4 1.5 0.4 0.6 1.2 0.6 0.7 0 1.1-0.6 0.4-0.5 0.4-1.5zm6.7-0.4v3.1h-0.9v-0.8q-0.3 0.5-0.8 0.7-0.4 0.2-1.1 0.2-0.8 0-1.3-0.4-0.5-0.5-0.5-1.3 0-0.9 0.6-1.4 0.6-0.5 1.8-0.5h1.3q0-0.7-0.4-1-0.4-0.3-1.2-0.3-0.4 0-0.9 0.1-0.4 0.1-0.8 0.3v-0.8q0.5-0.2 0.9-0.3 0.5-0.1 0.9-0.1 1.2 0 1.8 0.6 0.6 0.6 0.6 1.9zm-0.9 0.4h-0.9q-1.1 0-1.5 0.2-0.4 0.2-0.4 0.8 0 0.5 0.3 0.8 0.3 0.3 0.8 0.3 0.8 0 1.2-0.5 0.5-0.6 0.5-1.4zm5.9-2.9v1q-0.1-0.1-0.3-0.2-0.2 0-0.4 0-0.8 0-1.2 0.5-0.4 0.5-0.4 1.4v2.9h-0.9v-5.5h0.9v0.9q0.3-0.5 0.7-0.8 0.5-0.2 1.1-0.2 0.1 0 0.2 0 0.2 0 0.3 0zm5.4 2.6v0.5h-4.1q0 0.9 0.5 1.4 0.5 0.5 1.4 0.5 0.5 0 1-0.1 0.5-0.2 1-0.4v0.8q-0.5 0.2-1 0.3-0.5 0.1-1 0.1-1.3 0-2.1-0.7-0.8-0.8-0.8-2.1 0-1.3 0.8-2.1 0.7-0.8 1.9-0.8 1.1 0 1.8 0.7 0.6 0.7 0.6 1.9zm-4.1-0.2h3.2q0-0.8-0.4-1.2-0.4-0.4-1.1-0.4-0.7 0-1.2 0.4-0.4 0.4-0.5 1.2zm9.5-2.1v0.9q-0.4-0.2-0.8-0.3-0.3-0.1-0.7-0.1-0.9 0-1.4 0.5-0.5 0.6-0.5 1.6 0 1 0.5 1.5 0.5 0.6 1.4 0.6 0.4 0 0.7-0.1 0.4-0.1 0.8-0.3v0.8q-0.4 0.2-0.8 0.3-0.4 0-0.8 0-1.3 0-2-0.7-0.7-0.8-0.7-2.1 0-1.4 0.7-2.1 0.8-0.8 2-0.8 0.5 0 0.8 0.1 0.4 0.1 0.8 0.2zm1.6 5.3v-5.5h0.9v5.5zm0-6.5v-1.1h0.9v1.1zm6.4 1.9v-3h0.8v7.6h-0.8v-0.8q-0.3 0.5-0.8 0.7-0.4 0.2-1 0.2-1 0-1.6-0.7-0.6-0.8-0.6-2.1 0-1.3 0.6-2.1 0.6-0.8 1.6-0.8 0.6 0 1 0.2 0.5 0.3 0.8 0.8zm-3.1 1.9q0 1 0.4 1.5 0.4 0.6 1.1 0.6 0.7 0 1.1-0.6 0.5-0.5 0.5-1.5 0-1-0.5-1.6-0.4-0.5-1.1-0.5-0.7 0-1.1 0.5-0.4 0.6-0.4 1.6zm7.9-2.9q1.2 0 1.9 0.8 0.6 0.7 0.6 2.1 0 1.3-0.6 2.1-0.7 0.7-1.9 0.7-1.2 0-1.8-0.7-0.7-0.8-0.7-2.1 0-1.4 0.7-2.1 0.6-0.8 1.8-0.8zm0 0.8q-0.7 0-1.1 0.5-0.4 0.6-0.4 1.6 0 1 0.4 1.5 0.4 0.6 1.1 0.6 0.7 0 1.2-0.6 0.4-0.6 0.4-1.5 0-1-0.4-1.6-0.5-0.5-1.2-0.5zm7.5-0.5v0.8q-0.4-0.2-0.8-0.3-0.4 0-0.8 0-0.7 0-1 0.2-0.4 0.2-0.4 0.6 0 0.3 0.3 0.5 0.2 0.1 0.9 0.3l0.3 0.1q1 0.2 1.4 0.6 0.4 0.3 0.4 1 0 0.8-0.6 1.2-0.6 0.4-1.7 0.4-0.4 0-0.9 0-0.5-0.1-1-0.3v-0.9q0.5 0.2 1 0.4 0.5 0.1 1 0.1 0.6 0 0.9-0.2 0.4-0.2 0.4-0.6 0-0.4-0.3-0.6-0.2-0.2-1.1-0.4l-0.3-0.1q-0.8-0.1-1.2-0.5-0.3-0.4-0.3-1 0-0.8 0.5-1.2 0.6-0.4 1.6-0.4 0.5 0 0.9 0.1 0.4 0 0.8 0.2z"/>
					</g>
					<g id="Layer">
						<path id="Layer" class="s1" d="m810 56h15v15h-15z"/>
						<path id="Muertos" fill-rule="evenodd" class="s5" d="m831 69v-7.3h1.5l1.8 5 1.9-5h1.5v7.3h-1v-6.4l-1.9 5h-1l-1.9-5v6.4zm8.5-2.2v-3.3h0.9v3.3q0 0.8 0.3 1.2 0.3 0.4 0.9 0.4 0.8 0 1.2-0.5 0.4-0.5 0.4-1.3v-3.1h0.9v5.5h-0.9v-0.8q-0.3 0.5-0.7 0.7-0.5 0.2-1 0.2-1 0-1.5-0.5-0.5-0.6-0.5-1.8zm11.1-0.8v0.5h-4.1q0.1 0.9 0.6 1.4 0.5 0.5 1.4 0.5 0.5 0 1-0.1 0.5-0.2 0.9-0.4v0.8q-0.5 0.2-1 0.3-0.5 0.1-1 0.1-1.3 0-2.1-0.7-0.7-0.8-0.7-2.1 0-1.3 0.7-2.1 0.7-0.8 2-0.8 1.1 0 1.7 0.7 0.6 0.7 0.6 1.9zm-4.1-0.2h3.2q0-0.8-0.4-1.2-0.4-0.4-1-0.4-0.8 0-1.2 0.4-0.5 0.4-0.6 1.2zm8.8-2.4v1q-0.2-0.1-0.3-0.2-0.2 0-0.4 0-0.8 0-1.2 0.5-0.4 0.5-0.4 1.4v2.9h-0.9v-5.5h0.9v0.9q0.3-0.5 0.7-0.8 0.5-0.2 1.1-0.2 0.1 0 0.2 0 0.1 0 0.3 0zm0.9-1.4h0.9v1.5h1.9v0.7h-1.9v3q0 0.7 0.2 0.9 0.2 0.1 0.7 0.1h1v0.8h-1q-1 0-1.4-0.4-0.4-0.4-0.4-1.4v-3h-0.6v-0.7h0.6zm6.1 1.5q1.1 0 1.8 0.7 0.7 0.8 0.7 2.1 0 1.4-0.7 2.1-0.7 0.8-1.8 0.8-1.2 0-1.9-0.8-0.6-0.7-0.6-2.1 0-1.3 0.6-2.1 0.7-0.7 1.9-0.7zm0 0.7q-0.8 0-1.2 0.6-0.4 0.5-0.4 1.5 0 1 0.4 1.6 0.4 0.5 1.2 0.5 0.7 0 1.1-0.5 0.4-0.6 0.4-1.6 0-0.9-0.4-1.5-0.4-0.6-1.1-0.6zm7.5-0.5v0.9q-0.4-0.2-0.8-0.3-0.4-0.1-0.9-0.1-0.7 0-1 0.2-0.3 0.2-0.3 0.6 0 0.3 0.2 0.5 0.3 0.2 1 0.4h0.3q0.9 0.2 1.3 0.6 0.4 0.4 0.4 1 0 0.8-0.6 1.3-0.6 0.4-1.6 0.4-0.5 0-0.9-0.1-0.5-0.1-1-0.2v-1q0.5 0.3 0.9 0.4 0.5 0.1 1 0.1 0.6 0 1-0.2 0.3-0.2 0.3-0.6 0-0.4-0.2-0.5-0.3-0.2-1.1-0.4l-0.3-0.1q-0.9-0.2-1.2-0.5-0.4-0.4-0.4-1 0-0.8 0.6-1.2 0.5-0.4 1.5-0.4 0.5 0 0.9 0 0.5 0.1 0.9 0.2z"/>
					</g>
					<g id="Layer">
						<path id="Layer" class="s3" d="m810 76.5h15v15h-15z"/>
						<path id="Sobrevivientes" fill-rule="evenodd" class="s5" d="m835.4 81.9v1q-0.6-0.3-1.1-0.4-0.5-0.1-1-0.1-0.8 0-1.2 0.3-0.4 0.3-0.4 0.9 0 0.5 0.2 0.7 0.3 0.3 1.1 0.4l0.6 0.1q1.1 0.2 1.7 0.8 0.5 0.5 0.5 1.4 0 1-0.7 1.6-0.7 0.5-2.1 0.5-0.5 0-1.1-0.1-0.6-0.1-1.2-0.3v-1q0.6 0.3 1.2 0.5 0.5 0.1 1.1 0.1 0.8 0 1.3-0.3 0.5-0.3 0.5-0.9 0-0.6-0.4-0.9-0.3-0.3-1.1-0.4l-0.6-0.1q-1.1-0.3-1.5-0.7-0.5-0.5-0.5-1.3 0-1 0.6-1.6 0.7-0.5 1.9-0.5 0.5 0 1.1 0.1 0.5 0.1 1.1 0.2zm4 1.5q1.2 0 1.9 0.8 0.6 0.7 0.6 2.1 0 1.3-0.6 2.1-0.7 0.7-1.9 0.7-1.2 0-1.8-0.7-0.7-0.8-0.7-2.1 0-1.4 0.7-2.1 0.6-0.8 1.8-0.8zm0 0.8q-0.7 0-1.1 0.5-0.5 0.6-0.5 1.6 0 1 0.5 1.5 0.4 0.6 1.1 0.6 0.7 0 1.1-0.6 0.5-0.6 0.5-1.5 0-1-0.5-1.6-0.4-0.5-1.1-0.5zm4.9-2.8v3q0.3-0.5 0.7-0.8 0.4-0.2 1-0.2 1 0 1.6 0.8 0.7 0.8 0.7 2.1 0 1.3-0.7 2.1-0.6 0.7-1.6 0.7-0.6 0-1-0.2-0.4-0.2-0.7-0.7v0.8h-0.9v-7.6zm3 4.9q0-1-0.4-1.6-0.4-0.5-1.1-0.5-0.7 0-1.1 0.5-0.4 0.6-0.4 1.6 0 1 0.4 1.5 0.4 0.6 1.1 0.6 0.7 0 1.1-0.6 0.4-0.5 0.4-1.5zm5.6-2.9v1q-0.1-0.1-0.3-0.2-0.2 0-0.4 0-0.8 0-1.2 0.5-0.4 0.5-0.4 1.4v2.9h-0.9v-5.5h0.9v0.9q0.3-0.5 0.8-0.8 0.4-0.2 1.1-0.2 0.1 0 0.2 0 0.1 0 0.2 0zm5.4 2.6v0.5h-4.1q0 0.9 0.5 1.4 0.6 0.5 1.4 0.5 0.6 0 1-0.1 0.5-0.2 1-0.4v0.8q-0.5 0.2-1 0.3-0.5 0.1-1 0.1-1.3 0-2.1-0.7-0.7-0.8-0.7-2.1 0-1.3 0.7-2.1 0.7-0.8 1.9-0.8 1.1 0 1.8 0.7 0.6 0.7 0.6 1.9zm-4.1-0.2h3.2q0-0.8-0.4-1.2-0.4-0.4-1.1-0.4-0.7 0-1.2 0.4-0.4 0.4-0.5 1.2zm7 3.2l-2-5.5h0.9l1.7 4.6 1.7-4.6h1l-2.1 5.5zm4.5 0v-5.5h0.9v5.5zm0-6.5v-1.1h0.9v1.1zm4.2 6.5l-2-5.5h0.9l1.7 4.6 1.7-4.6h1l-2.1 5.5zm4.5 0v-5.5h0.9v5.5zm0-6.5v-1.1h0.9v1.1zm7.5 3.5v0.5h-4.1q0 0.9 0.5 1.4 0.5 0.5 1.4 0.5 0.5 0 1-0.1 0.5-0.2 1-0.4v0.8q-0.5 0.2-1 0.3-0.5 0.1-1 0.1-1.3 0-2.1-0.7-0.8-0.8-0.8-2.1 0-1.3 0.8-2.1 0.7-0.8 1.9-0.8 1.1 0 1.8 0.7 0.6 0.7 0.6 1.9zm-4.1-0.2h3.2q0-0.8-0.4-1.2-0.4-0.4-1.1-0.4-0.7 0-1.2 0.4-0.4 0.4-0.5 1.2zm10.1-0.1v3.3h-0.9v-3.3q0-0.7-0.3-1.1-0.3-0.4-0.9-0.4-0.7 0-1.1 0.4-0.5 0.5-0.5 1.3v3.1h-0.9v-5.5h0.9v0.9q0.4-0.5 0.8-0.8 0.4-0.2 1-0.2 1 0 1.4 0.6 0.5 0.6 0.5 1.7zm1.8-3.7h0.9v1.5h1.9v0.7h-1.9v3q0 0.7 0.2 0.9 0.2 0.1 0.7 0.1h1v0.8h-1q-1 0-1.4-0.4-0.4-0.4-0.4-1.4v-3h-0.7v-0.7h0.7zm8.6 4.1v0.4h-4.1q0 1 0.5 1.4 0.5 0.5 1.4 0.5 0.6 0 1-0.1 0.5-0.1 1-0.4v0.9q-0.5 0.2-1 0.3-0.5 0.1-1 0.1-1.3 0-2.1-0.8-0.8-0.7-0.8-2 0-1.4 0.8-2.2 0.7-0.7 1.9-0.7 1.1 0 1.8 0.7 0.6 0.7 0.6 1.9zm-4.1-0.3h3.2q0-0.7-0.4-1.1-0.4-0.5-1.1-0.5-0.7 0-1.2 0.4-0.4 0.5-0.5 1.2zm9.1-2.1v0.9q-0.4-0.2-0.8-0.3-0.4-0.1-0.9-0.1-0.6 0-1 0.2-0.3 0.2-0.3 0.6 0 0.3 0.2 0.5 0.3 0.2 1 0.4h0.3q1 0.2 1.4 0.6 0.4 0.4 0.4 1 0 0.8-0.6 1.2-0.6 0.5-1.7 0.5-0.4 0-0.9-0.1-0.5-0.1-1-0.2v-1q0.5 0.3 1 0.4 0.5 0.1 0.9 0.1 0.7 0 1-0.2 0.3-0.2 0.3-0.6 0-0.4-0.2-0.5-0.2-0.2-1.1-0.4l-0.3-0.1q-0.8-0.2-1.2-0.5-0.4-0.4-0.4-1 0-0.8 0.6-1.2 0.5-0.4 1.5-0.4 0.5 0 1 0 0.4 0.1 0.8 0.2z"/>
					</g>
				</g>
				<path id="Colors" fill-rule="evenodd" class="s5" d="m817.7 11.9v1.3q-0.6-0.6-1.2-0.9-0.7-0.2-1.5-0.2-1.5 0-2.3 0.9-0.8 0.9-0.8 2.6 0 1.8 0.8 2.7 0.8 0.9 2.3 0.9 0.8 0 1.5-0.3 0.6-0.3 1.2-0.8v1.2q-0.6 0.4-1.3 0.7-0.7 0.2-1.5 0.2-1.9 0-3.1-1.2-1.1-1.3-1.1-3.4 0-2.1 1.1-3.3 1.2-1.2 3.1-1.2 0.8 0 1.5 0.2 0.7 0.2 1.3 0.6zm4.4 1.4q1.4 0 2.2 0.9 0.8 0.9 0.8 2.5 0 1.6-0.8 2.6-0.8 0.9-2.2 0.9-1.5 0-2.3-0.9-0.8-1-0.8-2.6 0-1.6 0.8-2.5 0.8-0.9 2.3-0.9zm0 0.9q-0.9 0-1.4 0.7-0.5 0.6-0.5 1.8 0 1.2 0.5 1.9 0.5 0.7 1.4 0.7 0.8 0 1.3-0.7 0.5-0.7 0.5-1.9 0-1.1-0.5-1.8-0.5-0.7-1.3-0.7zm4.8 5.8v-9.1h1v9.1zm5.9-6.7q1.4 0 2.2 0.9 0.8 0.9 0.8 2.5 0 1.6-0.8 2.6-0.8 0.9-2.2 0.9-1.4 0-2.2-0.9-0.8-1-0.8-2.6 0-1.6 0.8-2.5 0.8-0.9 2.2-0.9zm0 0.9q-0.9 0-1.4 0.7-0.5 0.6-0.5 1.8 0 1.2 0.5 1.9 0.5 0.7 1.4 0.7 0.9 0 1.4-0.7 0.5-0.7 0.5-1.9 0-1.1-0.5-1.8-0.5-0.7-1.4-0.7zm8.6-0.9v1.1q-0.2-0.1-0.4-0.1-0.2-0.1-0.5-0.1-0.9 0-1.4 0.6-0.5 0.6-0.5 1.7v3.5h-1v-6.6h1v1.1q0.4-0.6 0.9-0.9 0.6-0.3 1.4-0.3 0.1 0 0.2 0 0.1 0 0.3 0zm5.3 0.3v1.1q-0.4-0.3-0.9-0.4-0.5-0.1-1-0.1-0.8 0-1.3 0.2-0.4 0.3-0.4 0.8 0 0.3 0.3 0.6 0.3 0.2 1.2 0.4h0.4q1.1 0.3 1.6 0.7 0.5 0.5 0.5 1.3 0 0.9-0.8 1.4-0.7 0.6-1.9 0.6-0.6 0-1.1-0.1-0.6-0.1-1.2-0.3v-1.2q0.6 0.4 1.1 0.5 0.6 0.2 1.2 0.2 0.7 0 1.2-0.3 0.4-0.3 0.4-0.7 0-0.5-0.3-0.7-0.3-0.2-1.3-0.5h-0.4q-1-0.3-1.4-0.7-0.5-0.4-0.5-1.2 0-0.9 0.7-1.4 0.6-0.5 1.8-0.5 0.6 0 1.1 0.1 0.6 0.1 1 0.2z"/>
			</g>
		</g>
	</g>
	<path id="Capa 1" class="s0" d="m53 12h43v566h-43z"/>
	<path id="Forma 1" class="s0" d="m748 19h21v561h-21z"/>
	<path id="Forma 2" class="s0" d="m0 0h1018v30h-1018z"/>
	<path id="Forma 3" class="s0" d="m-37 12h63v630h-63z"/>
	<path id="Forma 4" class="s0" d="m-105 701h100v100h-100z"/>
	<path id="Forma 5" class="s0" d="m974 0h84v644h-84z"/>
	<path id="Forma 6" class="s0" d="m-236 0h100v100h-100z"/>
	<path id="Forma 7" class="s0" d="m793 118h118v517h-118z"/>
	<path id="Forma 8" class="s0" d="m753 26h42v352h-42z"/>
	<path id="Forma 9" class="s0" d="m-22 600h1027v12h-1027z"/>
	<path id="Forma 10" class="s0" d="m-79 653h100v100h-100z"/>
</svg>