<svg version="1.2" xmlns="http://www.w3.org/2000/svg" viewBox="0 0 1005 600" width="720" height="430">
	<title>2-svg</title>
	<style>
		.s0 { fill: #ffffff } 
		.s1 { fill: #83bef5 } 
		.s2 { fill: #1f77b4 } 
		.s3 { fill: none;stroke: #000000 } 
		.s4 { fill: #000000 } 
		.s5 { fill: #7b7b7b } 
		.s6 { fill: none;stroke: #cccccc } 
	</style>
	<path id="backgorund" class="s0" d="m0 0h1005v600h-1005z"/>
	<g id="viz">
		<g id="Layer">
			<g id="Layer">
				<g id="Sobrevivientes">
					<path id="Layer" class="s1" d="m51 181.8h73.4v398.2h-73.4z"/>
					<path id="Layer" class="s1" d="m125.4 231.6h73.4v348.4h-73.4z"/>
					<path id="Layer" class="s1" d="m199.8 244h73.4v336h-73.4z"/>
					<path id="Layer" class="s1" d="m274.2 244h73.4v336h-73.4z"/>
					<path id="Layer" class="s1" d="m348.6 343.6h73.4v236.4h-73.4z"/>
					<path id="Layer" class="s1" d="m423 356h73.4v224h-73.4z"/>
					<path id="Layer" class="s1" d="m497.4 368.4h73.4v211.6h-73.4z"/>
					<path id="Layer" class="s1" d="m571.8 380.9h73.4v199.1h-73.4z"/>
					<path id="Layer" class="s1" d="m646.2 380.9h73.4v199.1h-73.4z"/>
					<path id="Layer" class="s1" d="m720.6 380.9h73.4v199.1h-73.4z"/>
				</g>
				<g id="Muertos">
					<path id="Layer" class="s2" d="m51 107.1h73.4v74.7h-73.4z"/>
					<path id="Layer" class="s2" d="m125.4 107.1h73.4v124.5h-73.4z"/>
					<path id="Layer" class="s2" d="m199.8 107.1h73.4v136.9h-73.4z"/>
					<path id="Layer" class="s2" d="m274.2 44.9h73.4v199.1h-73.4z"/>
					<path id="Layer" class="s2" d="m348.6 44.9h73.4v298.7h-73.4z"/>
					<path id="Layer" class="s2" d="m423 44.9h73.4v311.1h-73.4z"/>
					<path id="Layer" class="s2" d="m497.4 44.9h73.4v323.5h-73.4z"/>
					<path id="Layer" class="s2" d="m571.8 44.9h73.4v336h-73.4z"/>
					<path id="Layer" class="s2" d="m646.2 32.4h73.4v348.5h-73.4z"/>
					<path id="Layer" class="s2" d="m720.6 20h73.4v360.9h-73.4z"/>
				</g>
				<g id="xAxis">
					<path id="Layer" class="s3" d="m50 580h745"/>
					<g id="Layer">
						<path id="Layer" class="s3" d="m87.7 580v6"/>
						<path id="1" class="s4" aria-label="1"  d="m85.8 596v-0.8h1.6v-5.6l-1.8 0.4v-0.9l1.8-0.4h0.9v6.5h1.7v0.8z"/>
					</g>
					<g id="Layer">
						<path id="Layer" class="s3" d="m162.1 580v6"/>
						<path id="2" class="s4" aria-label="2"  d="m160.8 595.2h3.5v0.8h-4.6v-0.8q0.5-0.6 1.5-1.6 1-1 1.2-1.3 0.5-0.5 0.7-0.9 0.1-0.3 0.1-0.7 0-0.6-0.4-0.9-0.4-0.4-1-0.4-0.5 0-1 0.2-0.5 0.1-1.1 0.5v-1q0.6-0.3 1.1-0.4 0.5-0.1 1-0.1 1.1 0 1.8 0.5 0.6 0.6 0.6 1.6 0 0.4-0.1 0.8-0.2 0.4-0.6 1-0.2 0.1-0.8 0.8-0.7 0.7-1.9 1.9z"/>
					</g>
					<g id="Layer">
						<path id="Layer" class="s3" d="m236.5 580v6"/>
						<path id="9" class="s4" aria-label="9"  d="m234.4 595.8v-0.8q0.4 0.1 0.8 0.2 0.3 0.1 0.7 0.1 1 0 1.5-0.6 0.5-0.7 0.6-2-0.3 0.4-0.7 0.6-0.5 0.2-1 0.2-1.1 0-1.7-0.6-0.7-0.7-0.7-1.8 0-1.2 0.7-1.8 0.7-0.7 1.8-0.7 1.2 0 1.9 0.9 0.7 1 0.7 2.9 0 1.7-0.8 2.7-0.9 1-2.2 1-0.4 0-0.8 0-0.4-0.1-0.8-0.3zm2-3q0.6 0 1-0.5 0.4-0.5 0.4-1.2 0-0.8-0.4-1.3-0.4-0.4-1-0.4-0.7 0-1.1 0.4-0.4 0.5-0.4 1.3 0 0.7 0.4 1.2 0.4 0.5 1.1 0.5z"/>
					</g>
					<g id="Layer">
						<path id="Layer" class="s3" d="m310.9 580v6"/>
						<path id="12" class="s4" aria-label="12"  d="m305.8 596v-0.8h1.6v-5.6l-1.8 0.4v-0.9l1.8-0.4h1v6.5h1.6v0.8zm7-0.8h3.5v0.8h-4.7v-0.8q0.6-0.6 1.6-1.6 0.9-1 1.2-1.3 0.5-0.5 0.6-0.9 0.2-0.3 0.2-0.7 0-0.6-0.4-0.9-0.4-0.4-1-0.4-0.5 0-1 0.2-0.5 0.1-1.1 0.5v-1q0.6-0.3 1.1-0.4 0.5-0.1 0.9-0.1 1.2 0 1.8 0.5 0.7 0.6 0.7 1.6 0 0.4-0.1 0.8-0.2 0.4-0.7 1-0.1 0.1-0.7 0.8-0.7 0.7-1.9 1.9z"/>
					</g>
					<g id="Layer">
						<path id="Layer" class="s3" d="m385.3 580v6"/>
						<path id="17" class="s4" aria-label="17"  d="m380.2 596v-0.8h1.6v-5.6l-1.8 0.4v-0.9l1.8-0.4h1v6.5h1.6v0.8zm5.9-6.5v-0.8h4.7v0.4l-2.6 6.9h-1.1l2.5-6.5z"/>
					</g>
					<g id="Layer">
						<path id="Layer" class="s3" d="m459.7 580v6"/>
						<path id="34" class="s4" aria-label="34"  d="m457.4 592.1q0.7 0.1 1.1 0.6 0.4 0.5 0.4 1.2 0 1.1-0.7 1.7-0.8 0.5-2.2 0.5-0.4 0-0.9 0-0.5-0.1-1-0.3v-1q0.4 0.3 0.9 0.4 0.5 0.1 1 0.1 0.9 0 1.4-0.4 0.5-0.3 0.5-1 0-0.7-0.4-1-0.5-0.4-1.3-0.4h-0.8v-0.8h0.8q0.8 0 1.2-0.3 0.3-0.3 0.3-0.8 0-0.6-0.4-0.9-0.3-0.3-1.1-0.3-0.4 0-0.9 0.1-0.4 0.1-1 0.3v-0.9q0.6-0.2 1.1-0.2 0.5-0.1 0.9-0.1 1.1 0 1.8 0.5 0.6 0.5 0.6 1.4 0 0.6-0.3 1-0.4 0.4-1 0.6zm6.1 1.4v-3.9l-2.5 3.9zm-3.3-0.2l3-4.6h1.3v4.8h1v0.8h-1v1.7h-1v-1.7h-3.3z"/>
					</g>
					<g id="Layer">
						<path id="Layer" class="s3" d="m534.1 580v6"/>
						<path id="37" class="s4" aria-label="37"  d="m531.8 592.1q0.7 0.1 1.1 0.6 0.4 0.5 0.4 1.2 0 1.1-0.7 1.7-0.8 0.5-2.2 0.5-0.4 0-0.9 0-0.5-0.1-1-0.3v-1q0.4 0.3 0.9 0.4 0.5 0.1 1 0.1 0.9 0 1.4-0.4 0.5-0.3 0.5-1 0-0.7-0.4-1-0.5-0.4-1.3-0.4h-0.8v-0.8h0.8q0.8 0 1.2-0.3 0.3-0.3 0.3-0.8 0-0.6-0.4-0.9-0.3-0.3-1.1-0.3-0.4 0-0.9 0.1-0.4 0.1-1 0.3v-0.9q0.6-0.2 1.1-0.2 0.5-0.1 0.9-0.1 1.1 0 1.8 0.5 0.6 0.5 0.6 1.4 0 0.6-0.3 1-0.4 0.4-1 0.6zm3.1-2.6v-0.8h4.7v0.4l-2.6 6.9h-1.1l2.5-6.5z"/>
					</g>
					<g id="Layer">
						<path id="Layer" class="s3" d="m608.5 580v6"/>
						<path id="60" class="s4" aria-label="60"  d="m605.4 592q-0.6 0-1 0.4-0.4 0.5-0.4 1.3 0 0.7 0.4 1.2 0.4 0.5 1 0.5 0.7 0 1.1-0.5 0.4-0.5 0.4-1.2 0-0.8-0.4-1.3-0.4-0.4-1.1-0.4zm2-3.1v0.9q-0.4-0.2-0.8-0.3-0.3-0.1-0.7-0.1-1 0-1.5 0.7-0.5 0.6-0.6 2 0.3-0.5 0.7-0.7 0.5-0.2 1-0.2 1.1 0 1.7 0.6 0.7 0.7 0.7 1.9 0 1.1-0.7 1.8-0.7 0.6-1.8 0.6-1.2 0-1.9-0.9-0.7-1-0.7-2.8 0-1.8 0.9-2.8 0.8-1 2.2-1 0.3 0 0.7 0.1 0.4 0 0.8 0.2zm4.3 0.5q-0.8 0-1.2 0.7-0.3 0.8-0.3 2.3 0 1.5 0.3 2.2 0.4 0.8 1.2 0.8 0.7 0 1.1-0.8 0.4-0.7 0.4-2.2 0-1.5-0.4-2.3-0.4-0.7-1.1-0.7zm0-0.8q1.2 0 1.8 0.9 0.7 1 0.7 2.9 0 1.8-0.7 2.8-0.6 0.9-1.8 0.9-1.2 0-1.9-0.9-0.6-1-0.6-2.8 0-1.9 0.6-2.9 0.7-0.9 1.9-0.9z"/>
					</g>
					<g id="Layer">
						<path id="Layer" class="s3" d="m682.9 580v6"/>
						<path id="62" class="s4" aria-label="62"  d="m679.8 592q-0.6 0-1 0.4-0.4 0.5-0.4 1.3 0 0.7 0.4 1.2 0.4 0.5 1 0.5 0.7 0 1.1-0.5 0.4-0.5 0.4-1.2 0-0.8-0.4-1.3-0.4-0.4-1.1-0.4zm2-3.1v0.9q-0.4-0.2-0.8-0.3-0.3-0.1-0.7-0.1-1 0-1.5 0.7-0.5 0.6-0.6 2 0.3-0.5 0.7-0.7 0.5-0.2 1-0.2 1.1 0 1.7 0.6 0.7 0.7 0.7 1.9 0 1.1-0.7 1.8-0.7 0.6-1.8 0.6-1.2 0-1.9-0.9-0.7-1-0.7-2.8 0-1.8 0.9-2.8 0.8-1 2.2-1 0.3 0 0.7 0.1 0.4 0 0.8 0.2zm3 6.3h3.5v0.8h-4.7v-0.8q0.6-0.6 1.6-1.6 0.9-1 1.2-1.3 0.5-0.5 0.6-0.9 0.2-0.3 0.2-0.7 0-0.6-0.4-0.9-0.4-0.4-1-0.4-0.5 0-1 0.2-0.5 0.1-1.1 0.5v-1q0.6-0.3 1.1-0.4 0.5-0.1 0.9-0.1 1.2 0 1.8 0.5 0.7 0.6 0.7 1.6 0 0.4-0.1 0.8-0.2 0.4-0.7 1-0.1 0.1-0.7 0.8-0.7 0.7-1.9 1.9z"/>
					</g>
					<g id="Layer">
						<path id="Layer" class="s3" d="m757.3 580v6"/>
						<path id="72" class="s4" aria-label="72"  d="m751.8 589.5v-0.8h4.6v0.4l-2.6 6.9h-1l2.5-6.5zm7.4 5.7h3.5v0.8h-4.7v-0.8q0.6-0.6 1.6-1.6 0.9-1 1.2-1.3 0.5-0.5 0.6-0.9 0.2-0.3 0.2-0.7 0-0.6-0.4-0.9-0.4-0.4-1-0.4-0.5 0-1 0.2-0.5 0.1-1.1 0.5v-1q0.6-0.3 1.1-0.4 0.5-0.1 0.9-0.1 1.2 0 1.9 0.5 0.6 0.6 0.6 1.6 0 0.4-0.1 0.8-0.2 0.4-0.7 1-0.1 0.1-0.7 0.8-0.7 0.7-1.9 1.9z"/>
					</g>
				</g>
				<g id="yAxis">
					<path id="Layer" class="s3" d="m50 580v-560"/>
					<g id="Layer">
						<path id="Layer" class="s3" d="m50 580h-6"/>
						<path id="0" class="s4" aria-label="0"  d="m37.8 576.4q-0.7 0-1.1 0.7-0.4 0.8-0.4 2.3 0 1.5 0.4 2.2 0.4 0.8 1.1 0.8 0.8 0 1.2-0.8 0.3-0.7 0.3-2.2 0-1.5-0.3-2.3-0.4-0.7-1.2-0.7zm0-0.8q1.2 0 1.9 0.9 0.6 1 0.6 2.9 0 1.8-0.6 2.8-0.7 0.9-1.9 0.9-1.2 0-1.9-0.9-0.6-1-0.6-2.8 0-1.9 0.6-2.9 0.7-0.9 1.9-0.9z"/>
					</g>
					<g id="Layer">
						<path id="Layer" class="s3" d="m50 517.8h-6"/>
						<path id="5" class="s4" aria-label="5"  d="m35.7 517.4v-3.7h3.9v0.8h-3v1.8q0.2 0 0.4-0.1 0.3 0 0.5 0 1.2 0 1.9 0.6 0.7 0.7 0.7 1.9 0 1.1-0.7 1.8-0.7 0.6-2.1 0.6-0.4 0-0.9 0-0.5-0.1-1-0.3v-1q0.4 0.3 0.9 0.4 0.5 0.1 1 0.1 0.9 0 1.3-0.4 0.5-0.5 0.5-1.2 0-0.8-0.5-1.2-0.4-0.5-1.3-0.5-0.4 0-0.8 0.1-0.4 0.1-0.8 0.3z"/>
					</g>
					<g id="Layer">
						<path id="Layer" class="s3" d="m50 455.6h-6"/>
						<path id="10" class="s4" aria-label="10"  d="m29.5 459v-0.8h1.6v-5.6l-1.7 0.4v-0.9l1.7-0.4h1v6.5h1.6v0.8zm8.3-6.6q-0.7 0-1.1 0.7-0.4 0.8-0.4 2.3 0 1.5 0.4 2.2 0.4 0.8 1.1 0.8 0.8 0 1.2-0.8 0.3-0.7 0.3-2.2 0-1.5-0.3-2.3-0.4-0.7-1.2-0.7zm0-0.8q1.2 0 1.9 0.9 0.6 1 0.6 2.9 0 1.8-0.6 2.8-0.7 0.9-1.9 0.9-1.2 0-1.9-0.9-0.6-1-0.6-2.8 0-1.9 0.6-2.9 0.7-0.9 1.9-0.9z"/>
					</g>
					<g id="Layer">
						<path id="Layer" class="s3" d="m50 393.3h-6"/>
						<path id="15" class="s4" aria-label="15"  d="m29.5 397v-0.8h1.6v-5.6l-1.7 0.4v-0.9l1.7-0.4h1v6.5h1.6v0.8zm6.2-3.6v-3.7h3.9v0.8h-3v1.8q0.2 0 0.4-0.1 0.3 0 0.5 0 1.2 0 1.9 0.6 0.7 0.7 0.7 1.9 0 1.1-0.7 1.8-0.7 0.6-2.1 0.6-0.4 0-0.9 0-0.5-0.1-1-0.3v-1q0.4 0.3 0.9 0.4 0.5 0.1 1 0.1 0.9 0 1.3-0.4 0.5-0.5 0.5-1.2 0-0.8-0.5-1.2-0.4-0.5-1.3-0.5-0.4 0-0.8 0.1-0.4 0.1-0.8 0.3z"/>
					</g>
					<g id="Layer">
						<path id="Layer" class="s3" d="m50 331.1h-6"/>
						<path id="20" class="s4" aria-label="20"  d="m30.2 333.2h3.4v0.8h-4.6v-0.8q0.6-0.6 1.5-1.6 1-1 1.3-1.3 0.4-0.5 0.6-0.9 0.2-0.3 0.2-0.7 0-0.6-0.4-0.9-0.4-0.4-1.1-0.4-0.4 0-0.9 0.2-0.6 0.1-1.1 0.5v-1q0.6-0.3 1.1-0.4 0.5-0.1 0.9-0.1 1.2 0 1.8 0.5 0.7 0.6 0.7 1.6 0 0.4-0.2 0.8-0.1 0.4-0.6 1-0.1 0.1-0.8 0.8-0.6 0.7-1.8 1.9zm7.6-5.8q-0.7 0-1.1 0.7-0.4 0.8-0.4 2.3 0 1.5 0.4 2.2 0.4 0.8 1.1 0.8 0.8 0 1.2-0.8 0.3-0.7 0.3-2.2 0-1.5-0.3-2.3-0.4-0.7-1.2-0.7zm0-0.8q1.2 0 1.9 0.9 0.6 1 0.6 2.9 0 1.8-0.6 2.8-0.7 0.9-1.9 0.9-1.2 0-1.9-0.9-0.6-1-0.6-2.8 0-1.9 0.6-2.9 0.7-0.9 1.9-0.9z"/>
					</g>
					<g id="Layer">
						<path id="Layer" class="s3" d="m50 268.9h-6"/>
						<path id="25" class="s4" aria-label="25"  d="m30.2 271.2h3.4v0.8h-4.6v-0.8q0.6-0.6 1.5-1.6 1-1 1.3-1.3 0.4-0.5 0.6-0.9 0.2-0.3 0.2-0.7 0-0.6-0.4-0.9-0.4-0.4-1.1-0.4-0.4 0-0.9 0.2-0.6 0.1-1.1 0.5v-1q0.6-0.3 1.1-0.4 0.5-0.1 0.9-0.1 1.2 0 1.8 0.5 0.7 0.6 0.7 1.6 0 0.4-0.2 0.8-0.1 0.4-0.6 1-0.1 0.1-0.8 0.8-0.6 0.7-1.8 1.9zm5.5-2.8v-3.7h3.9v0.8h-3v1.8q0.2 0 0.4-0.1 0.3 0 0.5 0 1.2 0 1.9 0.6 0.7 0.7 0.7 1.9 0 1.1-0.7 1.8-0.7 0.6-2.1 0.6-0.4 0-0.9 0-0.5-0.1-1-0.3v-1q0.4 0.3 0.9 0.4 0.5 0.1 1 0.1 0.9 0 1.3-0.4 0.5-0.5 0.5-1.2 0-0.8-0.5-1.2-0.4-0.5-1.3-0.5-0.4 0-0.8 0.1-0.4 0.1-0.8 0.3z"/>
					</g>
					<g id="Layer">
						<path id="Layer" class="s3" d="m50 206.7h-6"/>
						<path id="30" class="s4" aria-label="30"  d="m32.3 206.1q0.7 0.1 1.1 0.6 0.4 0.5 0.4 1.2 0 1.1-0.7 1.7-0.7 0.5-2.1 0.5-0.5 0-1 0-0.4-0.1-1-0.3v-1q0.4 0.3 0.9 0.4 0.5 0.1 1.1 0.1 0.9 0 1.4-0.4 0.5-0.3 0.5-1 0-0.7-0.5-1-0.4-0.4-1.3-0.4h-0.8v-0.8h0.9q0.7 0 1.1-0.3 0.4-0.3 0.4-0.8 0-0.6-0.4-0.9-0.4-0.3-1.2-0.3-0.4 0-0.8 0.1-0.5 0.1-1 0.3v-0.9q0.5-0.2 1-0.2 0.5-0.1 0.9-0.1 1.2 0 1.8 0.5 0.7 0.5 0.7 1.4 0 0.6-0.4 1-0.3 0.4-1 0.6zm5.5-2.7q-0.7 0-1.1 0.7-0.4 0.8-0.4 2.3 0 1.5 0.4 2.2 0.4 0.8 1.1 0.8 0.8 0 1.2-0.8 0.3-0.7 0.3-2.2 0-1.5-0.3-2.3-0.4-0.7-1.2-0.7zm0-0.8q1.2 0 1.9 0.9 0.6 1 0.6 2.9 0 1.8-0.6 2.8-0.7 0.9-1.9 0.9-1.2 0-1.9-0.9-0.6-1-0.6-2.8 0-1.9 0.6-2.9 0.7-0.9 1.9-0.9z"/>
					</g>
					<g id="Layer">
						<path id="Layer" class="s3" d="m50 144.4h-6"/>
						<path id="35" class="s4" aria-label="35"  d="m32.3 144.1q0.7 0.1 1.1 0.6 0.4 0.5 0.4 1.2 0 1.1-0.7 1.7-0.7 0.5-2.1 0.5-0.5 0-1 0-0.4-0.1-1-0.3v-1q0.4 0.3 0.9 0.4 0.5 0.1 1.1 0.1 0.9 0 1.4-0.4 0.5-0.3 0.5-1 0-0.7-0.5-1-0.4-0.4-1.3-0.4h-0.8v-0.8h0.9q0.7 0 1.1-0.3 0.4-0.3 0.4-0.8 0-0.6-0.4-0.9-0.4-0.3-1.2-0.3-0.4 0-0.8 0.1-0.5 0.1-1 0.3v-0.9q0.5-0.2 1-0.2 0.5-0.1 0.9-0.1 1.2 0 1.8 0.5 0.7 0.5 0.7 1.4 0 0.6-0.4 1-0.3 0.4-1 0.6zm3.4 0.3v-3.7h3.9v0.8h-3v1.8q0.2 0 0.4-0.1 0.3 0 0.5 0 1.2 0 1.9 0.6 0.7 0.7 0.7 1.9 0 1.1-0.7 1.8-0.7 0.6-2.1 0.6-0.4 0-0.9 0-0.5-0.1-1-0.3v-1q0.4 0.3 0.9 0.4 0.5 0.1 1 0.1 0.9 0 1.3-0.4 0.5-0.5 0.5-1.2 0-0.8-0.5-1.2-0.4-0.5-1.3-0.5-0.4 0-0.8 0.1-0.4 0.1-0.8 0.3z"/>
					</g>
					<g id="Layer">
						<path id="Layer" class="s3" d="m50 82.2h-6"/>
						<path id="40" class="s4" aria-label="40"  d="m32.1 82.5v-3.9l-2.5 3.9zm-3.3-0.2l3-4.6h1.2v4.8h1.1v0.8h-1.1v1.7h-0.9v-1.7h-3.3zm9-4q-0.7 0-1.1 0.8-0.4 0.7-0.4 2.2 0 1.5 0.4 2.3 0.4 0.7 1.1 0.7 0.8 0 1.2-0.7 0.4-0.8 0.4-2.3 0-1.5-0.4-2.2-0.4-0.8-1.2-0.8zm0-0.8q1.3 0 1.9 1 0.6 1 0.6 2.8 0 1.9-0.6 2.8-0.6 1-1.9 1-1.2 0-1.8-1-0.7-0.9-0.7-2.8 0-1.8 0.7-2.8 0.6-1 1.8-1z"/>
					</g>
					<g id="Layer">
						<path id="Layer" class="s3" d="m50 20h-6"/>
						<path id="45" class="s4" aria-label="45"  d="m32.1 20.5v-3.9l-2.5 3.9zm-3.3-0.2l3-4.6h1.2v4.8h1.1v0.8h-1.1v1.7h-0.9v-1.7h-3.3zm6.9-1v-3.6h3.9v0.8h-3v1.8q0.2-0.1 0.5-0.1 0.2-0.1 0.4-0.1 1.2 0 1.9 0.7 0.7 0.7 0.7 1.8 0 1.2-0.7 1.8-0.7 0.7-2.1 0.7-0.4 0-0.9-0.1-0.5-0.1-1-0.2v-1q0.5 0.2 0.9 0.3 0.5 0.2 1 0.2 0.9 0 1.4-0.5 0.4-0.4 0.4-1.2 0-0.7-0.4-1.2-0.5-0.4-1.4-0.4-0.4 0-0.8 0.1-0.4 0-0.8 0.2z"/>
					</g>
				</g>
				<path id="Día" class="s5" aria-label="Día"  d="m778.9 568.2h-1.5v6.8h1.5q1.8 0 2.6-0.8 0.9-0.8 0.9-2.6 0-1.7-0.9-2.6-0.8-0.8-2.6-0.8zm-2.6 7.8v-8.7h2.4q2.5 0 3.7 1 1.2 1.1 1.2 3.3 0 2.3-1.2 3.3-1.2 1.1-3.7 1.1zm8.9-7.4l1.6-2.2h1.2l-1.9 2.2zm0.3 7.4v-6.6h1v6.6zm0.6-6.7zm6.8 3.4h-1q-1.3 0-1.8 0.3-0.5 0.3-0.5 1 0 0.6 0.3 0.9 0.4 0.4 1.1 0.4 0.9 0 1.4-0.7 0.5-0.6 0.5-1.7zm1.1-0.4v3.7h-1.1v-1q-0.3 0.6-0.9 0.9-0.5 0.3-1.3 0.3-1 0-1.6-0.6-0.6-0.5-0.6-1.5 0-1.1 0.7-1.6 0.8-0.6 2.2-0.6h1.5v-0.1q0-0.8-0.5-1.2-0.4-0.4-1.3-0.4-0.6 0-1.1 0.2-0.6 0.1-1 0.4v-1q0.5-0.3 1.1-0.4 0.6-0.1 1.1-0.1 1.4 0 2.1 0.8 0.7 0.7 0.7 2.2z"/>
			</g>
		</g>
		<g id="grid">
			<path id="Layer" class="s6" d="m0 0h805v600h-805z"/>
		</g>
	</g>
	<g id="legend">
		<g id="Layer">
			<g id="Layer">
				<g id="Layer">
					<g id="Layer">
						<path id="Layer" class="s2" d="m810 35.5h15v15h-15z"/>
						<path id="Muertos" class="s4" aria-label="Muertos"  d="m831 48v-7.3h1.5l1.8 5 1.9-5h1.5v7.3h-1v-6.4l-1.9 5h-1l-1.9-5v6.4zm8.5-2.2v-3.3h0.9v3.3q0 0.8 0.3 1.2 0.3 0.4 0.9 0.4 0.8 0 1.2-0.5 0.4-0.5 0.4-1.3v-3.1h0.9v5.5h-0.9v-0.8q-0.3 0.5-0.7 0.7-0.5 0.2-1 0.2-1 0-1.5-0.5-0.5-0.6-0.5-1.8zm2.3-3.4zm8.8 2.6v0.5h-4.1q0.1 0.9 0.6 1.4 0.5 0.5 1.4 0.5 0.5 0 1-0.1 0.5-0.2 0.9-0.4v0.8q-0.5 0.2-1 0.3-0.5 0.1-1 0.1-1.3 0-2.1-0.7-0.7-0.8-0.7-2.1 0-1.3 0.7-2.1 0.7-0.8 2-0.8 1.1 0 1.7 0.7 0.6 0.7 0.6 1.9zm-4.1-0.2h3.2q0-0.8-0.4-1.2-0.4-0.4-1-0.4-0.8 0-1.2 0.4-0.5 0.4-0.6 1.2zm8.8-2.4v1q-0.2-0.1-0.3-0.2-0.2 0-0.4 0-0.8 0-1.2 0.5-0.4 0.5-0.4 1.4v2.9h-0.9v-5.5h0.9v0.9q0.3-0.5 0.7-0.8 0.5-0.2 1.1-0.2 0.1 0 0.2 0 0.1 0 0.3 0zm0.9-1.4h0.9v1.5h1.9v0.7h-1.9v3q0 0.7 0.2 0.9 0.2 0.1 0.7 0.1h1v0.8h-1q-1 0-1.4-0.4-0.4-0.4-0.4-1.4v-3h-0.6v-0.7h0.6zm6.1 2.2q-0.8 0-1.2 0.6-0.4 0.5-0.4 1.5 0 1 0.4 1.6 0.4 0.5 1.2 0.5 0.7 0 1.1-0.5 0.4-0.6 0.4-1.6 0-0.9-0.4-1.5-0.4-0.6-1.1-0.6zm0-0.7q1.1 0 1.8 0.7 0.7 0.8 0.7 2.1 0 1.4-0.7 2.1-0.7 0.8-1.8 0.8-1.2 0-1.9-0.8-0.6-0.7-0.6-2.1 0-1.3 0.6-2.1 0.7-0.7 1.9-0.7zm7.5 0.2v0.9q-0.4-0.2-0.8-0.3-0.4-0.1-0.9-0.1-0.7 0-1 0.2-0.3 0.2-0.3 0.6 0 0.3 0.2 0.5 0.3 0.2 1 0.4h0.3q0.9 0.2 1.3 0.6 0.4 0.4 0.4 1 0 0.8-0.6 1.3-0.6 0.4-1.6 0.4-0.5 0-0.9-0.1-0.5-0.1-1-0.2v-1q0.5 0.3 0.9 0.4 0.5 0.1 1 0.1 0.6 0 1-0.2 0.3-0.2 0.3-0.6 0-0.4-0.2-0.5-0.3-0.2-1.1-0.4l-0.3-0.1q-0.9-0.2-1.2-0.5-0.4-0.4-0.4-1 0-0.8 0.6-1.2 0.5-0.4 1.5-0.4 0.5 0 0.9 0 0.5 0.1 0.9 0.2z"/>
					</g>
					<g id="Layer">
						<path id="Layer" class="s1" d="m810 56h15v15h-15z"/>
						<path id="Sobrevivientes" class="s4" aria-label="Sobrevivientes"  d="m835.4 61.9v1q-0.6-0.3-1.1-0.4-0.5-0.1-1-0.1-0.8 0-1.2 0.3-0.4 0.3-0.4 0.9 0 0.5 0.2 0.7 0.3 0.3 1.1 0.4l0.6 0.1q1.1 0.2 1.7 0.8 0.5 0.5 0.5 1.4 0 1-0.7 1.6-0.7 0.5-2.1 0.5-0.5 0-1.1-0.1-0.6-0.1-1.2-0.3v-1q0.6 0.3 1.2 0.5 0.5 0.1 1.1 0.1 0.8 0 1.3-0.3 0.5-0.3 0.5-0.9 0-0.6-0.4-0.9-0.3-0.3-1.1-0.4l-0.6-0.1q-1.1-0.3-1.5-0.7-0.5-0.5-0.5-1.3 0-1 0.6-1.6 0.7-0.5 1.9-0.5 0.5 0 1.1 0.1 0.5 0.1 1.1 0.2zm4 2.3q-0.7 0-1.1 0.5-0.5 0.6-0.5 1.6 0 1 0.5 1.5 0.4 0.6 1.1 0.6 0.7 0 1.1-0.6 0.5-0.6 0.5-1.5 0-1-0.5-1.6-0.4-0.5-1.1-0.5zm0-0.8q1.2 0 1.9 0.8 0.6 0.7 0.6 2.1 0 1.3-0.6 2.1-0.7 0.7-1.9 0.7-1.2 0-1.8-0.7-0.7-0.8-0.7-2.1 0-1.4 0.7-2.1 0.6-0.8 1.8-0.8zm7.9 2.9q0-1-0.4-1.6-0.4-0.5-1.1-0.5-0.7 0-1.1 0.5-0.4 0.6-0.4 1.6 0 1 0.4 1.5 0.4 0.6 1.1 0.6 0.7 0 1.1-0.6 0.4-0.5 0.4-1.5zm-3-4.9v3q0.3-0.5 0.7-0.8 0.4-0.2 1-0.2 1 0 1.6 0.8 0.7 0.8 0.7 2.1 0 1.3-0.7 2.1-0.6 0.7-1.6 0.7-0.6 0-1-0.2-0.4-0.2-0.7-0.7v0.8h-0.9v-7.6zm8.6 2v1q-0.1-0.1-0.3-0.2-0.2 0-0.4 0-0.8 0-1.2 0.5-0.4 0.5-0.4 1.4v2.9h-0.9v-5.5h0.9v0.9q0.3-0.5 0.8-0.8 0.4-0.2 1.1-0.2 0.1 0 0.2 0 0.1 0 0.2 0zm5.4 2.6v0.5h-4.1q0 0.9 0.5 1.4 0.6 0.5 1.4 0.5 0.6 0 1-0.1 0.5-0.2 1-0.4v0.8q-0.5 0.2-1 0.3-0.5 0.1-1 0.1-1.3 0-2.1-0.7-0.7-0.8-0.7-2.1 0-1.3 0.7-2.1 0.7-0.8 1.9-0.8 1.1 0 1.8 0.7 0.6 0.7 0.6 1.9zm-4.1-0.2h3.2q0-0.8-0.4-1.2-0.4-0.4-1.1-0.4-0.7 0-1.2 0.4-0.4 0.4-0.5 1.2zm7 3.2l-2-5.5h0.9l1.7 4.6 1.7-4.6h1l-2.1 5.5zm4.5 0v-5.5h0.9v5.5zm0-6.5v-1.1h0.9v1.1zm4.2 6.5l-2-5.5h0.9l1.7 4.6 1.7-4.6h1l-2.1 5.5zm4.5 0v-5.5h0.9v5.5zm0-6.5v-1.1h0.9v1.1zm7.5 3.5v0.5h-4.1q0 0.9 0.5 1.4 0.5 0.5 1.4 0.5 0.5 0 1-0.1 0.5-0.2 1-0.4v0.8q-0.5 0.2-1 0.3-0.5 0.1-1 0.1-1.3 0-2.1-0.7-0.8-0.8-0.8-2.1 0-1.3 0.8-2.1 0.7-0.8 1.9-0.8 1.1 0 1.8 0.7 0.6 0.7 0.6 1.9zm-4.1-0.2h3.2q0-0.8-0.4-1.2-0.4-0.4-1.1-0.4-0.7 0-1.2 0.4-0.4 0.4-0.5 1.2zm10.1-0.1v3.3h-0.9v-3.3q0-0.7-0.3-1.1-0.3-0.4-0.9-0.4-0.7 0-1.1 0.4-0.5 0.5-0.5 1.3v3.1h-0.9v-5.5h0.9v0.9q0.4-0.5 0.8-0.8 0.4-0.2 1-0.2 1 0 1.4 0.6 0.5 0.6 0.5 1.7zm1.8-3.7h0.9v1.5h1.9v0.7h-1.9v3q0 0.7 0.2 0.9 0.2 0.1 0.7 0.1h1v0.8h-1q-1 0-1.4-0.4-0.4-0.4-0.4-1.4v-3h-0.7v-0.7h0.7zm8.6 4.1v0.4h-4.1q0 1 0.5 1.4 0.5 0.5 1.4 0.5 0.6 0 1-0.1 0.5-0.1 1-0.4v0.9q-0.5 0.2-1 0.3-0.5 0.1-1 0.1-1.3 0-2.1-0.8-0.8-0.7-0.8-2 0-1.4 0.8-2.2 0.7-0.7 1.9-0.7 1.1 0 1.8 0.7 0.6 0.7 0.6 1.9zm-4.1-0.3h3.2q0-0.7-0.4-1.1-0.4-0.5-1.1-0.5-0.7 0-1.2 0.4-0.4 0.5-0.5 1.2zm9.1-2.1v0.9q-0.4-0.2-0.8-0.3-0.4-0.1-0.9-0.1-0.6 0-1 0.2-0.3 0.2-0.3 0.6 0 0.3 0.2 0.5 0.3 0.2 1 0.4h0.3q1 0.2 1.4 0.6 0.4 0.4 0.4 1 0 0.8-0.6 1.3-0.6 0.4-1.7 0.4-0.4 0-0.9-0.1-0.5-0.1-1-0.2v-1q0.5 0.3 1 0.4 0.5 0.1 0.9 0.1 0.7 0 1-0.2 0.3-0.2 0.3-0.6 0-0.4-0.2-0.5-0.2-0.2-1.1-0.4l-0.3-0.1q-0.8-0.2-1.2-0.5-0.4-0.4-0.4-1 0-0.8 0.6-1.2 0.5-0.4 1.5-0.4 0.5 0 1 0 0.4 0.1 0.8 0.2z"/>
					</g>
				</g>
				<path id="Colors" class="s4" aria-label="Colors"  d="m817.7 11.9v1.3q-0.6-0.6-1.2-0.9-0.7-0.2-1.5-0.2-1.5 0-2.3 0.9-0.8 0.9-0.8 2.6 0 1.8 0.8 2.7 0.8 0.9 2.3 0.9 0.8 0 1.5-0.3 0.6-0.3 1.2-0.8v1.2q-0.6 0.4-1.3 0.7-0.7 0.2-1.5 0.2-1.9 0-3.1-1.2-1.1-1.3-1.1-3.4 0-2.1 1.1-3.3 1.2-1.2 3.1-1.2 0.8 0 1.5 0.2 0.7 0.2 1.3 0.6zm4.4 2.3q-0.9 0-1.4 0.7-0.5 0.6-0.5 1.8 0 1.2 0.5 1.9 0.5 0.7 1.4 0.7 0.8 0 1.3-0.7 0.5-0.7 0.5-1.9 0-1.1-0.5-1.8-0.5-0.7-1.3-0.7zm0-0.9q1.4 0 2.2 0.9 0.8 0.9 0.8 2.5 0 1.6-0.8 2.6-0.8 0.9-2.2 0.9-1.5 0-2.3-0.9-0.8-1-0.8-2.6 0-1.6 0.8-2.5 0.8-0.9 2.3-0.9zm4.8 6.7v-9.1h1v9.1zm5.9-5.8q-0.9 0-1.4 0.7-0.5 0.6-0.5 1.8 0 1.2 0.5 1.9 0.5 0.7 1.4 0.7 0.9 0 1.4-0.7 0.5-0.7 0.5-1.9 0-1.1-0.5-1.8-0.5-0.7-1.4-0.7zm0-0.9q1.4 0 2.2 0.9 0.8 0.9 0.8 2.5 0 1.6-0.8 2.6-0.8 0.9-2.2 0.9-1.4 0-2.2-0.9-0.8-1-0.8-2.6 0-1.6 0.8-2.5 0.8-0.9 2.2-0.9zm8.6 0v1.1q-0.2-0.1-0.4-0.1-0.2-0.1-0.5-0.1-0.9 0-1.4 0.6-0.5 0.6-0.5 1.7v3.5h-1v-6.6h1v1.1q0.4-0.6 0.9-0.9 0.6-0.3 1.4-0.3 0.1 0 0.2 0 0.1 0 0.3 0zm5.3 0.3v1.1q-0.4-0.3-0.9-0.4-0.5-0.1-1-0.1-0.8 0-1.3 0.2-0.4 0.3-0.4 0.8 0 0.3 0.3 0.6 0.3 0.2 1.2 0.4h0.4q1.1 0.3 1.6 0.7 0.5 0.5 0.5 1.3 0 0.9-0.8 1.4-0.7 0.6-1.9 0.6-0.6 0-1.1-0.1-0.6-0.1-1.2-0.3v-1.2q0.6 0.4 1.1 0.5 0.6 0.2 1.2 0.2 0.7 0 1.2-0.3 0.4-0.3 0.4-0.7 0-0.5-0.3-0.7-0.3-0.2-1.3-0.5h-0.4q-1-0.3-1.4-0.7-0.5-0.4-0.5-1.2 0-0.9 0.7-1.4 0.6-0.5 1.8-0.5 0.6 0 1.1 0.1 0.6 0.1 1 0.2z"/>
			</g>
		</g>
	</g>
</svg>